<?xml version="1.0" encoding="utf-8"?>
<svg version="1.1" xmlns="http://www.w3.org/2000/svg" xmlns:xlink="http://www.w3.org/1999/xlink" x="0px" y="0px"
	 viewBox="0 0 389 97" style="enable-background:new 0 0 389 97;" xml:space="preserve">
<style type="text/css">
	.st0{fill:#FFFFFF;}
	.st1{fill:#FFFF00;}
</style>
<g id="Слой_2">
</g>
<g id="Слой_1">
	<g>
		<path class="st0" d="M148.5,40.1l16.9,23.6h-10.9l-12-17.5l-5.1,4.9v12.6H129V24.7h8.6v16.2l15.6-16.2H164L148.5,40.1z"/>
		<path class="st0" d="M181.1,64.5c-8.8,0-14.7-5.9-14.7-14.8c0-8.8,6.1-15.1,14.4-15.1c8.7,0,14.2,6.2,14.2,16.1v0.8h-20.5
			c0.1,4.9,2.5,7.5,6.7,7.5c2.9,0,4.7-1.3,5.8-4.1h7.6C192.8,61,187.6,64.5,181.1,64.5z M180.8,40.3c-3.5,0-5.9,2.4-6.4,6.3H187
			C186.7,43.2,184.8,40.3,180.8,40.3z"/>
		<path class="st0" d="M214.4,63.6c-2.3,6.2-3.7,10.2-10.9,10.2c-2.4,0-1.4,0-5.3-0.1v-6.4h3.8c2.6,0,4-1.4,4-3.8
			c0-0.3-0.1-0.8-0.2-1.1l-10.4-27h8.5l6.6,19.2l6.3-19.2h8.2L214.4,63.6z"/>
		<path class="st0" d="M233.1,24.7l6.3,26.5l6.9-26.5h8.2l6.8,26.8l6.6-26.8h8.6l-10.7,38.9h-8.7l-6.8-26.6l-6.7,26.6h-8.8
			l-10.5-38.9H233.1z"/>
		<path class="st0" d="M305.8,49.6c0,9.1-5.8,15-14.8,15s-14.8-6-14.8-15c0-9,5.9-14.9,14.9-14.9C300,34.6,305.8,40.6,305.8,49.6z
			 M284.1,49.6c0,5.8,2.6,9.1,6.9,9.1c4.3,0,6.9-3.4,6.9-9.2c0-5.6-2.6-9-7-9C286.7,40.5,284.1,43.9,284.1,49.6z"/>
		<path class="st0" d="M329,42.1c-1.4-0.3-2.2-0.3-3.1-0.3c-5.4,0-7.6,3.8-7.6,9v12.9h-7.9V35.4h7.5v5.2c1.8-3.7,5-5.9,9.3-5.9
			c0.6,0,0.9,0.1,1.7,0.2V42.1z"/>
		<path class="st0" d="M351,63.7v-3.6c-1.9,2.9-4.7,4.4-8.7,4.4c-7.9,0-13-5.9-13-15c0-8.9,4.9-14.8,12.6-14.8
			c3.4,0,6.9,1.4,8.7,4.3V24.7h7.8v38.9H351z M344,40.8c-4.3,0-6.8,3.2-6.8,8.6c0,5.5,2.6,8.7,6.8,8.7c4.3,0,6.8-3.2,6.8-8.7
			C350.8,44,348.3,40.8,344,40.8z"/>
		<path class="st0" d="M380.7,43.6c-0.4-3-2.3-3.9-5.4-3.9c-2.8,0-4.4,1-4.4,2.8c0,2.4,2.4,2.7,7,3.6c5.2,1,11.2,2.4,11.2,8.8
			c0,5.9-4.9,9.6-13.1,9.6c-7.2,0-13.3-2.8-13.4-10h7.5c0.3,3.4,2.5,4.7,6.1,4.7c3.2,0,5.2-1.4,5.2-3.5c0-2.4-2.3-2.8-6.4-3.8
			c-5.1-1.1-11.8-1.9-11.8-8.6c0-5.5,4.6-8.6,12.6-8.6c6.6,0,12.2,2.5,12.4,9H380.7z"/>
	</g>
	<circle class="st1" cx="48.9" cy="48.5" r="48"/>
	<g>
		<path d="M29.1,23.3H38v22.9h0.2l17.9-22.9h9.9L50.6,42.9l18.1,30.7h-9.9L45.2,49.9l-7.2,9v14.7h-8.9V23.3z"/>
	</g>
</g>
</svg>
