<?xml version="1.0" encoding="utf-8"?>
<!-- Generator: Adobe Illustrator 22.1.0, SVG Export Plug-In . SVG Version: 6.00 Build 0)  -->
<svg version="1.1" id="Layer_1" xmlns="http://www.w3.org/2000/svg" xmlns:xlink="http://www.w3.org/1999/xlink" x="0px" y="0px"
	 viewBox="0 0 283.5 283.5" style="enable-background:new 0 0 283.5 283.5;" xml:space="preserve">
<style type="text/css">
	.st0{fill:#FFFFFF;}
</style>
<path class="st0" d="M183.8,4.9h-84C23.1,4.9,4.9,23.1,4.9,99.7v84c0,76.7,18.2,94.8,94.8,94.8h84c76.7,0,94.8-18.2,94.8-94.8v-84
	C278.6,23.1,260.2,4.9,183.8,4.9z M225.9,200.2H206c-7.5,0-9.8-6-23.4-19.7c-11.8-11.4-17-12.9-19.9-12.9c-4.1,0-5.2,1.2-5.2,6.8v18
	c0,4.8-1.5,7.7-14.3,7.7c-21,0-44.4-12.7-60.8-36.5c-24.7-34.8-31.5-60.8-31.5-66.2c0-2.9,1.2-5.6,6.8-5.6h19.9c5,0,7,2.3,8.9,7.7
	c9.8,28.4,26.3,53.3,33,53.3c2.5,0,3.7-1.2,3.7-7.5v-29.4c-0.8-13.5-7.9-14.7-7.9-19.5c0-2.3,1.9-4.6,5-4.6h31.3
	c4.2,0,5.8,2.3,5.8,7.3v39.6c0,4.2,1.9,5.8,3.1,5.8c2.5,0,4.6-1.5,9.3-6.2c14.3-16,24.5-40.7,24.5-40.7c1.4-2.9,3.7-5.6,8.7-5.6
	h19.9c6,0,7.3,3.1,6,7.3c-2.5,11.6-26.8,46-26.8,46c-2.1,3.5-2.9,5,0,8.9c2.1,2.9,9.1,8.9,13.7,14.3c8.5,9.7,15.1,17.8,16.8,23.4
	C234.3,197.3,231.5,200.2,225.9,200.2z"/>
</svg>
